<svg xmlns="http://www.w3.org/2000/svg" data-name="Layer 1" viewBox="0 0 24 24" id="folder"><defs><linearGradient id="a" x1=".988" x2="26.265" y1="11.626" y2="14.052" gradientUnits="userSpaceOnUse"><stop offset="0" stop-color="#cc2fa9"></stop><stop offset="1" stop-color="#823cde"></stop></linearGradient></defs><path fill="url(#a)" d="M21,5H10.618L9.447,2.658A2.983,2.983,0,0,0,6.764,1H3A3,3,0,0,0,0,4V20a3,3,0,0,0,3,3H21a3,3,0,0,0,3-3V8A3,3,0,0,0,21,5ZM3,5a2.966,2.966,0,0,0-1,.184V4A1,1,0,0,1,3,3H6.764a1,1,0,0,1,.894.553L8.382,5Z"></path></svg>